<svg xmlns="http://www.w3.org/2000/svg" width="100" height="100" viewBox="20 15 60 60">
  <!-- Music Note with Glowing Stroke -->
  <path 
    d="M65 20V50.5C63 48 59 47 55.5 48.5C52 50 50.5 54 52 57.5C53.5 61 57.5 62.5 61 61C64.5 59.5 66 55.5 65 52V30H45V55.5C43 53 39 52 35.5 53.5C32 55 30.5 59 32 62.5C33.5 66 37.5 67.5 41 66C44.5 64.5 46 60.5 45 57V20H65Z" 
    fill="#1E3D4F"
    stroke="#0F1F26"
    stroke-width="2"
    stroke-linejoin="round"
    filter="url(#darkGlow)"
  />

  <!-- Dark Glow Filter -->
  <defs>
    <filter id="darkGlow" x="-50%" y="-50%" width="200%" height="200%">
      <feDropShadow dx="0" dy="0" stdDeviation="3" flood-color="#0F1F26" flood-opacity="0.8"/>
    </filter>
  </defs>
</svg>
